<svg xmlns="http://www.w3.org/2000/svg" viewBox="0 0 977.09 1008.73"><defs><style>.cls-1{fill:#050404;}.cls-2{font-size:110px;fill:#231f20;font-family:TimesNewRomanPSMT, Times New Roman;}</style></defs><g id="Layer_2" data-name="Layer 2"><path class="cls-1" d="M659.22,478.22c-9.2,4.65-17.91,9.77-27.16,13.59q-49.5,20.4-99.35,40c-5,2-7.33,4.16-8.29,10-3.59,21.48-9.35,42.67-11.88,64.25-1.26,10.7,1.63,22.33,4.68,33,2.55,8.88,2.6,14.75-6.2,19.82-6.16,3.56-11.08,9.21-16.9,13.44-1.42,1-4.87,1.06-6.27,0-7.73-5.71-15.32-11.65-22.46-18.07-1.77-1.6-2.69-5.48-2.25-8,1.78-9.95,5.28-19.68,6.13-29.66.68-8-1.19-16.31-2.57-24.37-3-17.58-6.17-35.13-9.82-52.58-.55-2.64-3.57-5.87-6.18-6.82-43.05-15.79-86.14-31.42-126.33-53.92-.4-.22-1,0-2.85,0,2.19,8.62,5.15,16.86,6.28,25.36,2.91,21.91,13.52,37.53,32.25,49.94,20.86,13.83,40,30.38,59.12,46.61,4.06,3.44,6.09,10.42,7.09,16.11,7.91,45.14,15.35,90.36,22.92,135.56q7.85,46.93,15.64,93.9c.22,1.29.27,2.62.49,4.89a30.83,30.83,0,0,1-3.56-2.44C422,811.2,382.47,773.48,342.48,736.23c-13.5-12.58-28.27-23.78-42.07-36-2.79-2.48-5.42-6.86-5.5-10.42-1.39-62.11-2.73-124.23-3.27-186.36-.21-23.73,1.61-47.48,2.56-72.45L308,448.15l3.49-3c-1.89-3.33-3.5-6.85-5.7-10-11.51-16.2-9.08-34.27-6.08-51.87,5.87-34.49,19.93-65.14,45.91-89.45,16.26-15.22,35.31-25.87,56.21-33.16,4.47-1.56,5.39-3.63,5.55-8,1.41-39.31,2.7-78.64,4.89-117.92,1.05-18.86,3.94-37.63,6-56.44l2.31-.33q13.31,58.58,26.62,117.16l2.3-.32c-.77-8.35-1.06-16.78-2.39-25q-10-62.32-20.65-124.55c-.89-5.21,1.43-7.15,5.25-9.15,20.72-10.89,43-14,66-13.27,18.33.59,35.9,4.55,52.37,13,5,2.54,6.36,5.24,5.27,11.19-5.79,31.66-11.08,63.43-16.15,95.22-2.6,16.3-4.39,32.74-6.51,49.12a27.7,27.7,0,0,0,0,3.53l2,.33Q548,136.38,561.38,77.54l2.23.08c2,19.62,4.86,39.19,5.95,58.86,2.17,39.27,3.26,78.6,5.28,117.88.12,2.4,4,5.67,6.83,6.72,23.68,8.8,44.77,21.49,61.93,40.22,21.95,23.95,33.46,52.59,38.93,84.34,3.61,21,2.08,40.3-11.36,57.61-.13.18,0,.53-.1,1.51,8.49-.11,9.91-8.73,16.17-12.93,1.06,18,2.82,35.47,3,52.92q.63,69.56,0,139.12C690,646.6,688.32,669.33,687,692a11.28,11.28,0,0,1-3.83,7.3c-55.77,44.55-107,94-157.64,144.2-2.62,2.59-4.6,5.82-6.88,8.76l-1.93-1.55q3.4-21.11,6.82-42.21c5.2-32.4,10.18-64.83,15.65-97.18q8.54-50.4,18.07-100.62c.84-4.37,4.38-9,8-12,25.33-20.48,51-40.53,76.56-60.78,1.79-1.42,4-3.15,4.56-5.14,4.67-17.19,9-34.46,13.38-51.73C659.9,480.45,659.48,479.61,659.22,478.22Z"/></g><g id="Layer_1" data-name="Layer 1"><text class="cls-2" transform="matrix(-0.28, -0.96, 0.96, -0.28, 117.81, 635.93)">C</text><text class="cls-2" transform="translate(97.06 563.7) rotate(-95.96)">E</text><text class="cls-2" transform="translate(89.51 495.19) rotate(-85.31)">N</text><text class="cls-2" transform="translate(96.82 414.57) rotate(-74.51)">T</text><text class="cls-2" transform="translate(114.8 348.15) rotate(-63.65)">U</text><text class="cls-2" transform="translate(151.04 275.96) rotate(-52.47)">R</text><text class="cls-2" transform="translate(198.75 216.38) rotate(-44.16)">I</text><text class="cls-2" transform="translate(226.16 187.8) rotate(-35.44)">O</text><text class="cls-2" transform="translate(291.86 141.15) rotate(-23.84)">N</text><text class="cls-2" transform="matrix(0.96, -0.27, 0.27, 0.96, 368.07, 109.74)"> </text><text class="cls-2" transform="translate(399.65 101.14) rotate(-10.87)"> </text><text class="cls-2" transform="translate(431.84 95.18) rotate(-6.14)"> </text><text class="cls-2" transform="translate(464.45 91.89) rotate(-1.46)"> </text><text class="cls-2" transform="matrix(1, 0.06, -0.06, 1, 497.27, 91.26)"> </text><text class="cls-2" transform="translate(529.97 93.3) rotate(7.89)"> </text><text class="cls-2" transform="translate(562.37 98) rotate(12.63)"> </text><text class="cls-2" transform="translate(594.26 105.37) rotate(17.39)"> </text><text class="cls-2" transform="translate(623.8 111.81) rotate(26.82)">M</text><text class="cls-2" transform="translate(710.92 157.07) rotate(39.6)">A</text><text class="cls-2" transform="matrix(0.63, 0.77, -0.77, 0.63, 772.92, 208.92)">R</text><text class="cls-2" transform="translate(820.39 266.69) rotate(61.89)">A</text><text class="cls-2" transform="matrix(0.32, 0.95, -0.95, 0.32, 853.52, 328.12)">T</text><text class="cls-2" transform="matrix(0.14, 0.99, -0.99, 0.14, 876.2, 393.09)">H</text><text class="cls-2" transform="matrix(-0.06, 1, -1, -0.06, 887.33, 472.95)">O</text><text class="cls-2" transform="translate(882.45 553.39) rotate(105.02)">N</text><text class="cls-2" transform="matrix(0.46, 0.89, -0.89, 0.46, 42.86, 685.72)">*</text><text class="cls-2" transform="translate(74.81 744.9) rotate(56.55)"> </text><text class="cls-2" transform="matrix(0.66, 0.75, -0.75, 0.66, 96.64, 779.5)">D</text><text class="cls-2" transform="translate(160.3 849.14) rotate(38.4)">E</text><text class="cls-2" transform="translate(225.14 899.24) rotate(28.41)">R</text><text class="cls-2" transform="matrix(0.93, 0.36, -0.36, 0.93, 302.19, 938.24)"> </text><text class="cls-2" transform="translate(339.57 952.78) rotate(14.15)">S</text><text class="cls-2" transform="translate(413.37 970.86) rotate(4.14)">V</text><text class="cls-2" transform="translate(503.7 974.97) rotate(-3.35)"> </text><text class="cls-2" transform="translate(544.61 973.44) rotate(-11.21)">G</text><text class="cls-2" transform="translate(636.85 953.2) rotate(-21.67)">E</text><text class="cls-2" transform="translate(714.49 922.57) rotate(-33.64)">W</text><text class="cls-2" transform="translate(810.62 853.59) rotate(-43.59)">I</text><text class="cls-2" transform="translate(846.5 819.38) rotate(-50.82)">S</text><text class="cls-2" transform="translate(891.69 761.23) rotate(-57.49)"> </text><text class="cls-2" transform="translate(913.16 727.69) rotate(-63.81)">*</text><text/></g></svg>