<?xml version="1.0" standalone="yes"?>
<svg xmlns="http://www.w3.org/2000/svg" width="600" height="600">
<path style="fill:#ffffff; stroke:none;" d="M275 155C271.212 144.904 269.901 133.526 267.576 123C263.889 106.311 259.46 89.7194 256 73C251.887 79.866 252.617 91.1391 251.831 99C250.042 116.889 248.455 135.034 248.015 153C247.775 162.785 250.328 175.466 247.682 184.892C246.53 188.995 241.435 189.825 238 191.284C229.563 194.866 221.081 199.449 214 205.325C196.505 219.843 186.41 239.076 181.576 261C177.82 278.035 178.249 292.179 190 306C185.409 302.764 181.812 298.865 179 294C176.408 298.327 177.286 303.155 176.715 308C175.109 321.611 177.126 335.387 175.83 349C173.582 372.622 176 396.341 176 420C176 427.399 176.805 434.649 176.985 442C177.124 447.672 176.454 454.573 178.6 459.961C180.203 463.987 184.791 466.598 188 469.25C195.093 475.111 202.136 481.038 209 487.166C222.837 499.52 236.854 511.918 250 525.001C261.055 536.002 272.254 549.021 285 558C279.012 526.218 273.598 494.04 269.282 462C267.609 449.581 265.268 437.331 263.084 425C261.889 418.256 261.268 410.271 258.348 404.015C255.523 397.962 248.069 394.017 243 389.997C231.14 380.592 216.58 371.771 206.278 360.7C202.867 357.035 202.054 351.692 200.873 347C199.024 339.649 197.055 332.297 195 325C212.94 334.449 231.052 342.873 250 350.189C257.647 353.142 270.507 354.953 276.486 360.699C280.531 364.587 280.355 373.769 281.4 379C283.163 387.833 286.277 398.008 286.272 407C286.266 415.825 282.946 424.509 281 433C286.154 436.524 293.463 446.107 300 446.256C306.149 446.397 314.255 436.517 319 433C317.068 424.571 313.734 415.745 313.728 407C313.723 398.156 317.123 388.721 318.586 380C319.501 374.546 319.405 364.802 323.564 360.702C325.689 358.607 329.282 357.838 332 356.808C337.977 354.542 344.037 352.499 350 350.189C368.781 342.914 387.627 335.245 405 325C402.851 332.63 400.909 340.335 398.884 348C397.715 352.427 396.921 357.222 393.722 360.711C383.218 372.165 368.16 381.113 356 390.801C351.257 394.58 344.294 398.357 341.652 404.015C338.708 410.32 338.046 418.203 336.92 425C335.15 435.687 333.158 446.291 331.573 457C326.583 490.712 321.308 524.519 315 558C325.48 550.618 334.925 540.075 344 531C356.908 518.092 370.214 505.394 384 493.424C392.332 486.19 400.518 478.818 409 471.753C412.796 468.591 418.573 465.332 420.973 460.91C423.629 456.017 422.939 448.392 423.004 443C423.123 433.013 424 423.047 424 413C424 386.637 424.661 360.375 424.015 334C423.696 320.983 425.027 306.715 422 294C418.132 298.287 414.775 302.636 410 306C422.544 291.282 421.852 276.956 418 259C410.873 225.776 386.018 195.874 352 188C354.75 173.187 352.111 156.914 351.09 142C349.515 119.014 349.228 95.763 345 73C339.717 81.6498 338.555 95.1186 336.551 105C333.214 121.456 327.333 138.247 326 155C323.974 146.982 327.225 136.118 328.586 128C331.374 111.374 333.474 94.6403 336.247 78C337.195 72.3109 338.321 66.655 339.449 61C339.941 58.5362 341.128 55.6129 340.306 53.1049C338.465 47.4829 328.017 45.1555 323 43.8951C307.243 39.9365 290.627 39.9481 275 44.4275C270.535 45.7073 262.408 47.6973 260.117 52.213C258.797 54.8155 260.056 58.3503 260.65 61C262.06 67.2847 263.028 73.6468 264.08 80C266.728 95.9862 269.056 111.981 271.427 128C272.744 136.892 274.814 146.008 275 155z"/>
</svg>
